<svg width="24" height="21" viewBox="0 0 24 21" fill="none" xmlns="http://www.w3.org/2000/svg">
<path d="M15.1282 10.2458C14.9605 10.2458 14.8049 10.1997 14.6667 10.1256V10.1276C14.6667 10.3913 14.5642 10.6389 14.3782 10.8244C14.1923 11.0104 13.9448 11.1129 13.6814 11.1129C13.5113 11.1129 13.3537 11.0656 13.214 10.9895C13.1999 11.2308 13.1035 11.4563 12.9315 11.6285C12.7455 11.8144 12.498 11.9169 12.2345 11.9169C11.7108 11.9169 11.2856 11.5053 11.2549 10.9894C11.0929 11.077 10.9097 11.1229 10.7208 11.1107C10.2057 11.077 9.80228 10.6319 9.80228 10.0972V5.66561L9.29766 6.53985C9.10546 6.87423 8.74567 7.08184 8.35831 7.08184C8.16955 7.08184 7.98309 7.03231 7.81795 6.93769C7.61231 6.81847 7.46521 6.62709 7.40404 6.39814C7.34254 6.16904 7.37435 5.92945 7.49325 5.72411C7.49341 5.72411 9.14432 2.86522 9.24503 2.68961C9.25701 2.6632 9.29112 2.58662 9.32015 2.52135C9.34786 2.45903 9.37164 2.39508 9.39443 2.33079C9.8923 0.92523 11.1251 0.0521278 12.6118 0.0521278C14.5425 0.0521278 16.1132 1.75534 16.1132 3.8489L16.1134 9.26039C16.1134 9.52376 16.011 9.77123 15.8252 9.95738C15.6393 10.1433 15.3918 10.2458 15.1281 10.2458L15.1282 10.2458ZM12.6118 0.575671C11.3343 0.575671 10.3161 1.29726 9.88791 2.50588C9.86052 2.58263 9.83199 2.65938 9.79869 2.73416C9.7021 2.9508 9.7021 2.95079 9.67488 2.98195L9.67127 2.97883C9.53647 3.23319 9.136 3.9267 7.94657 5.98614C7.89769 6.07059 7.88474 6.16866 7.90967 6.26246C7.93492 6.35627 7.99544 6.43531 8.07924 6.48369C8.33933 6.63308 8.69553 6.53665 8.84377 6.27837L9.8374 4.55807C9.89677 4.45557 10.0168 4.40523 10.1319 4.43639C10.2464 4.46705 10.3259 4.57086 10.3259 4.68926V10.0974C10.3259 10.3526 10.5185 10.5728 10.7551 10.5884C10.8916 10.5956 11.0188 10.5498 11.1144 10.4544C11.2013 10.3675 11.2492 10.2517 11.2492 10.1279V6.5909C11.2492 6.44626 11.3665 6.329 11.5111 6.329C11.6558 6.329 11.773 6.44609 11.773 6.5909L11.7729 10.9318C11.7729 11.1864 11.98 11.3935 12.2345 11.3935C12.3581 11.3935 12.4742 11.3456 12.5613 11.2587C12.6482 11.1716 12.6961 11.0555 12.6961 10.9318V6.59089C12.6961 6.44625 12.8132 6.32899 12.958 6.32899C13.1027 6.32899 13.2199 6.44609 13.2199 6.59089L13.2198 10.0872V10.1279C13.2198 10.3822 13.4269 10.5893 13.6816 10.5893C13.8051 10.5893 13.9208 10.5413 14.0084 10.454C14.0953 10.3673 14.1432 10.2515 14.1432 10.1277V6.59071C14.1432 6.44607 14.2603 6.32881 14.4051 6.32881C14.5497 6.32881 14.667 6.4459 14.667 6.59071L14.6667 9.26052C14.6667 9.5152 14.8738 9.72232 15.1281 9.72232C15.2519 9.72232 15.3677 9.67427 15.4546 9.58752C15.5419 9.50028 15.5896 9.38417 15.5896 9.26052L15.5898 3.84903C15.5898 2.0443 14.2539 0.575725 12.6118 0.575725L12.6118 0.575671Z" fill="#103E13"/>
<path d="M4.83847 14.0069L8.63881 11.7271C9.097 11.4519 9.68655 11.5688 9.98043 11.9934C10.0877 12.1481 10.1425 12.3283 10.151 12.5118C10.2927 12.4379 10.4468 12.3977 10.6038 12.3977C10.6841 12.3977 10.7648 12.4077 10.8445 12.4275C11.0998 12.4913 11.315 12.6509 11.4503 12.8765C11.5858 13.1025 11.6253 13.3673 11.5615 13.6224C11.5026 13.8584 11.3591 14.057 11.1595 14.1932C11.2991 14.2756 11.4195 14.3879 11.5051 14.5309C11.6405 14.7569 11.6801 15.0216 11.6164 15.2769C11.5526 15.5319 11.3931 15.7471 11.1671 15.8827L11.1658 15.8835C11.3029 15.9657 11.4211 16.0769 11.5057 16.2178C11.6414 16.4437 11.6809 16.7086 11.6171 16.9639C11.5531 17.2191 11.3936 17.4342 11.1679 17.5697L6.52764 20.3535C5.66159 20.8729 4.66041 21.0521 3.70892 20.8578C2.74892 20.6617 1.95386 20.1098 1.47044 19.3039C0.7054 18.0289 0.820053 16.5225 1.76907 15.3727C1.81253 15.3202 1.85533 15.2668 1.8942 15.2113C1.93536 15.1528 1.98341 15.0839 1.99981 15.0603C2.09804 14.8848 3.70092 11.9969 3.70075 11.9972C3.86262 11.7052 4.166 11.5398 4.47889 11.54C4.62485 11.54 4.77293 11.5759 4.90954 11.6517C5.07452 11.7439 5.2131 11.8782 5.31001 12.04C5.50927 12.3721 5.51632 12.7877 5.32871 13.124L4.83847 14.0069ZM4.86126 12.3093C4.81042 12.2245 4.74056 12.1569 4.65512 12.109C4.4785 12.0113 4.25613 12.0749 4.15889 12.2509C3.01194 14.3172 2.62096 15.0214 2.47008 15.2719L2.47352 15.2728C2.4609 15.3148 2.4609 15.3148 2.32282 15.512C2.27591 15.5788 2.22491 15.6429 2.17293 15.706C1.35688 16.6948 1.26213 17.939 1.91923 19.0346C2.32626 19.7132 2.99897 20.1784 3.8135 20.3447C4.6369 20.5122 5.50475 20.3564 6.25799 19.9044L10.8987 17.1205C11.0046 17.057 11.0794 16.9562 11.1093 16.8366C11.1391 16.7172 11.1206 16.5931 11.0569 16.4872C10.9261 16.269 10.6419 16.1974 10.4238 16.3287L8.13444 17.7022C8.01047 17.7766 7.84942 17.7366 7.77514 17.6125C7.70069 17.4885 7.74086 17.3276 7.86484 17.2532L10.1543 15.8797L10.8979 15.4337C11.0038 15.37 11.0788 15.2692 11.1086 15.15C11.1385 15.0304 11.1199 14.9061 11.0563 14.8003C10.9253 14.5821 10.6411 14.5111 10.4231 14.6419L7.39008 16.4614C7.26578 16.536 7.10522 16.4957 7.03077 16.3717C6.95632 16.2477 6.99666 16.0869 7.12048 16.0124L10.8429 13.7793C10.9489 13.7157 11.0237 13.615 11.0535 13.4955C11.0834 13.3761 11.0648 13.2519 11.0014 13.146C10.9379 13.0402 10.837 12.9655 10.7175 12.9356C10.5973 12.9058 10.4736 12.9243 10.368 12.9876L9.67893 13.401C9.67876 13.401 9.67876 13.4012 9.6786 13.4012H9.67844L6.64557 15.2207C6.52126 15.2955 6.36055 15.2551 6.28626 15.131C6.21181 15.007 6.25215 14.8461 6.37596 14.7717L9.409 12.9522C9.51494 12.8885 9.58988 12.7877 9.61973 12.6685C9.65253 12.5376 9.6276 12.4038 9.54986 12.2916C9.41506 12.0966 9.12677 12.0448 8.90817 12.1762L4.27083 14.9581C4.16932 15.0188 4.03927 15.0041 3.95416 14.9219C3.86889 14.8396 3.8497 14.7102 3.90709 14.6067L4.87138 12.8694C4.96814 12.6957 4.96436 12.4812 4.86121 12.3093L4.86126 12.3093Z" fill="#103E13"/>
<path d="M22.9983 19.3038C22.515 20.1098 21.7201 20.6615 20.76 20.8576C19.8083 21.0516 18.8075 20.8727 17.9412 20.3533L13.3005 17.5694C13.0747 17.434 12.915 17.2188 12.851 16.9633C12.7876 16.7083 12.8273 16.4434 12.9626 16.2178C13.047 16.0767 13.1654 15.9655 13.3027 15.8834L13.3014 15.8826C13.0755 15.7471 12.9158 15.5319 12.8522 15.2768C12.7882 15.0216 12.8279 14.7566 12.9634 14.5306C13.0506 14.3855 13.1702 14.272 13.3066 14.1915C13.1085 14.0552 12.9658 13.8573 12.9071 13.6224C12.8432 13.3671 12.8829 13.1022 13.0183 12.8766C13.1536 12.6507 13.3689 12.4912 13.6241 12.4274C13.7038 12.4074 13.7847 12.3975 13.8647 12.3975C14.0218 12.3977 14.176 12.4376 14.3176 12.5117C14.3263 12.3282 14.3809 12.148 14.4882 11.9933C14.7822 11.5691 15.3713 11.4516 15.8302 11.727L19.6304 14.0065L19.1405 13.1242C18.9526 12.7873 18.9595 12.3718 19.1587 12.0395C19.2558 11.8778 19.3945 11.7435 19.5603 11.6505C19.6966 11.5751 19.8442 11.5393 19.9898 11.5393C20.3026 11.5395 20.6063 11.7045 20.768 11.9966C21.3314 13.0119 22.3948 14.9266 22.4695 15.0603C22.4854 15.0834 22.5335 15.1523 22.5747 15.2108C22.6138 15.2664 22.6562 15.3196 22.6999 15.3724C23.6488 16.5226 23.7633 18.0289 22.9983 19.3038L22.9983 19.3038ZM22.2959 15.7061C22.2438 15.643 22.1926 15.5785 22.146 15.5121C22.0043 15.3111 22.0007 15.3058 21.9901 15.2532C21.8244 14.9791 21.4204 14.2517 20.3097 12.2506C20.2122 12.075 19.9909 12.0109 19.8146 12.1083C19.7278 12.1568 19.6581 12.2245 19.6073 12.3093C19.5043 12.481 19.5004 12.6955 19.5976 12.8697L20.5616 14.6066C20.6191 14.7102 20.5999 14.8394 20.5148 14.9217C20.4299 15.0042 20.3 15.0187 20.198 14.958L15.5606 12.176C15.342 12.045 15.0539 12.0963 14.9188 12.2915C14.841 12.4036 14.8163 12.5374 14.8487 12.6681C14.8786 12.7875 14.9535 12.8882 15.0596 12.9519C15.06 12.952 15.0601 12.9523 15.0605 12.9525L18.0925 14.7715C18.2165 14.846 18.2567 15.0067 18.1822 15.1308C18.1078 15.2546 17.9472 15.2951 17.8229 15.2205L14.1005 12.9874C13.9948 12.9241 13.8705 12.9055 13.7512 12.9355C13.6314 12.9653 13.5308 13.0401 13.4673 13.1462C13.4037 13.252 13.3853 13.3761 13.4148 13.4955C13.4447 13.6149 13.5196 13.7157 13.6255 13.7794L14.3499 14.2138L17.3478 16.0125C17.4718 16.0869 17.512 16.2476 17.4375 16.3718C17.3631 16.4956 17.2025 16.5359 17.0782 16.4615L14.0455 14.642C13.8274 14.5108 13.5434 14.582 13.4122 14.8004C13.3486 14.9063 13.3302 15.0305 13.3597 15.1499C13.3896 15.2693 13.4645 15.3699 13.5706 15.4337L14.3141 15.8798L16.6033 17.2532C16.7273 17.3277 16.7675 17.4884 16.693 17.6125C16.6186 17.7364 16.458 17.777 16.3337 17.7023L14.0445 16.3288C13.9389 16.2655 13.8151 16.2468 13.6951 16.2768C13.5757 16.3067 13.4747 16.3814 13.4112 16.4872C13.3477 16.5932 13.3292 16.7175 13.3587 16.8367C13.3886 16.9561 13.4635 17.0568 13.5696 17.1206L18.2103 19.9045C18.9634 20.3563 19.8319 20.5127 20.6548 20.3448C21.4692 20.1785 22.1419 19.7132 22.5489 19.0346C23.2067 17.9388 23.1121 16.6945 22.2962 15.7061L22.2959 15.7061Z" fill="#103E13"/>
</svg>
