<svg width="35" height="20" viewBox="0 0 35 20" fill="none" xmlns="http://www.w3.org/2000/svg">
<path d="M17.3728 0.748169C14.8869 0.748169 12.8632 2.79036 12.8632 5.28678C12.8632 6.86604 13.6742 8.26047 14.8988 9.07327C13.4197 9.56781 12.1399 10.4921 11.2013 11.7013C10.6823 11.3021 10.1024 10.9811 9.47729 10.751C10.4252 10.0473 11.0447 8.91679 11.0447 7.6462C11.0447 5.52893 9.33233 3.79569 7.22789 3.79569C5.12346 3.79569 3.41107 5.52893 3.41107 7.6462C3.41107 8.91751 4.03106 10.0485 4.97981 10.7523C2.46799 11.6792 0.674072 14.1059 0.674072 16.9619V18.9681C0.674329 19.121 0.735505 19.2675 0.843975 19.3752C0.952444 19.4832 1.09922 19.5433 1.25216 19.5428H10.0539C10.0753 19.5451 10.0966 19.5464 10.1179 19.5462H24.6281C24.6494 19.5464 24.671 19.5451 24.6921 19.5428H33.4945C33.8109 19.5415 34.0672 19.2848 34.068 18.9681V16.9619C34.068 14.1059 32.2772 11.6792 29.7667 10.752C30.7154 10.0485 31.3354 8.91725 31.3354 7.64594C31.3354 5.52867 29.623 3.79543 27.5186 3.79543C25.4142 3.79543 23.7017 5.52867 23.7017 7.64594C23.7017 8.91652 24.3215 10.0472 25.2694 10.7508C24.643 10.9813 24.0629 11.3034 23.5432 11.7036C22.605 10.4937 21.3269 9.5681 19.8479 9.07327C21.0722 8.26047 21.8835 6.86604 21.8835 5.28678C21.8835 2.79036 19.8587 0.748169 17.3729 0.748169H17.3728ZM17.3728 1.89972C19.232 1.89972 20.7307 3.40857 20.7307 5.28678C20.7307 7.15031 19.2553 8.64449 17.4167 8.66845C17.4021 8.66845 17.3877 8.66639 17.3728 8.66639C17.3579 8.66639 17.3437 8.66845 17.3288 8.66845C15.4902 8.6448 14.0158 7.15038 14.0158 5.28678C14.0158 3.40831 15.5133 1.89972 17.3725 1.89972H17.3728ZM7.22796 4.94717C8.70312 4.94717 9.89323 6.14445 9.89323 7.64614C9.89323 9.13775 8.71852 10.3299 7.25724 10.3461C7.24747 10.3461 7.23796 10.3451 7.22794 10.3451C7.21817 10.3451 7.20866 10.3461 7.19864 10.3461C5.73735 10.3299 4.56264 9.13749 4.56264 7.64614C4.56264 6.14452 5.75275 4.94717 7.22792 4.94717H7.22796ZM27.5182 4.94717C28.9934 4.94717 30.1835 6.14445 30.1835 7.64614C30.1835 9.13775 29.0088 10.3299 27.5475 10.3461C27.5377 10.3461 27.5282 10.3451 27.5182 10.3451C27.5084 10.3451 27.4989 10.3461 27.4889 10.3461C26.0276 10.3299 24.8529 9.13749 24.8529 7.64614C24.8529 6.14452 26.043 4.94717 27.5182 4.94717H27.5182ZM17.3287 9.81993C17.3433 9.82019 17.3577 9.82199 17.3726 9.82199C17.3873 9.82199 17.4017 9.81993 17.4166 9.81993C21.1038 9.84358 24.0548 12.8199 24.0548 16.5456L24.0545 18.3943H10.6913V16.5456C10.6913 12.8195 13.6414 9.84362 17.3282 9.81993H17.3287ZM7.18387 11.499C7.19852 11.4992 7.21292 11.501 7.22782 11.501C7.24273 11.501 7.25687 11.499 7.27178 11.499C8.51894 11.509 9.65713 11.939 10.5634 12.6585C9.91491 13.8059 9.53987 15.1304 9.53987 16.546V18.3902H1.82516V16.9618C1.82516 13.9339 4.2059 11.5226 7.18373 11.4987L7.18387 11.499ZM27.4741 11.499C27.489 11.4992 27.5032 11.501 27.5181 11.501C27.533 11.501 27.5471 11.499 27.562 11.499C30.5399 11.5226 32.9206 13.9342 32.9206 16.9621V18.3902H25.202L25.2017 16.546C25.2017 15.1312 24.8277 13.8077 24.1805 12.6605C25.087 11.94 26.226 11.509 27.4742 11.499H27.4741Z" fill="#103E13"/>
</svg>
