<svg width="34" height="35" viewBox="0 0 34 35" fill="none" xmlns="http://www.w3.org/2000/svg">
<path d="M19.2209 14.0204C19.0037 14.0204 18.8271 13.8441 18.8271 13.6266V12.9575C18.8271 12.7403 19.0034 12.5637 19.2209 12.5637C19.4381 12.5637 19.6146 12.74 19.6146 12.9575V13.6266C19.6146 13.8441 19.4381 14.0204 19.2209 14.0204Z" fill="#103E13"/>
<path d="M17.5654 14.0204C17.3482 14.0204 17.1716 13.8441 17.1716 13.6266V12.9575C17.1716 12.7403 17.3479 12.5637 17.5654 12.5637C17.7826 12.5637 17.9591 12.74 17.9591 12.9575V13.6266C17.9589 13.8441 17.7828 14.0204 17.5654 14.0204Z" fill="#103E13"/>
<path d="M15.9101 14.0204C15.6929 14.0204 15.5164 13.8441 15.5164 13.6266V12.9575C15.5164 12.7403 15.6926 12.5637 15.9101 12.5637C16.1273 12.5637 16.3039 12.74 16.3039 12.9575V13.6266C16.3039 13.8441 16.1276 14.0204 15.9101 14.0204Z" fill="#103E13"/>
<path d="M19.2209 16.7567C19.0037 16.7567 18.8271 16.5804 18.8271 16.363V15.6941C18.8271 15.4769 19.0034 15.3004 19.2209 15.3004C19.4381 15.3004 19.6146 15.4766 19.6146 15.6941V16.363C19.6146 16.5804 19.4381 16.7567 19.2209 16.7567Z" fill="#103E13"/>
<path d="M17.5654 16.7567C17.3482 16.7567 17.1716 16.5804 17.1716 16.363V15.6941C17.1716 15.4769 17.3479 15.3004 17.5654 15.3004C17.7826 15.3004 17.9591 15.4766 17.9591 15.6941V16.363C17.9589 16.5804 17.7828 16.7567 17.5654 16.7567Z" fill="#103E13"/>
<path d="M15.9101 16.7567C15.6929 16.7567 15.5164 16.5804 15.5164 16.363V15.6941C15.5164 15.4769 15.6926 15.3004 15.9101 15.3004C16.1273 15.3004 16.3039 15.4766 16.3039 15.6941V16.363C16.3039 16.5804 16.1276 16.7567 15.9101 16.7567Z" fill="#103E13"/>
<path d="M19.2209 19.4932C19.0037 19.4932 18.8271 19.3169 18.8271 19.0995V18.4303C18.8271 18.2131 19.0034 18.0366 19.2209 18.0366C19.4381 18.0366 19.6146 18.2128 19.6146 18.4303V19.0995C19.6146 19.3169 19.4381 19.4932 19.2209 19.4932Z" fill="#103E13"/>
<path d="M17.5654 19.4932C17.3482 19.4932 17.1716 19.3169 17.1716 19.0995V18.4303C17.1716 18.2131 17.3479 18.0366 17.5654 18.0366C17.7826 18.0366 17.9591 18.2128 17.9591 18.4303V19.0995C17.9589 19.3169 17.7828 19.4932 17.5654 19.4932Z" fill="#103E13"/>
<path d="M15.9101 19.4932C15.6929 19.4932 15.5164 19.3169 15.5164 19.0995V18.4303C15.5164 18.2131 15.6926 18.0366 15.9101 18.0366C16.1273 18.0366 16.3039 18.2128 16.3039 18.4303V19.0995C16.3039 19.3169 16.1276 19.4932 15.9101 19.4932Z" fill="#103E13"/>
<path d="M19.2209 22.229C19.0037 22.229 18.8271 22.0528 18.8271 21.8353V21.1661C18.8271 20.949 19.0034 20.7724 19.2209 20.7724C19.4381 20.7724 19.6146 20.9487 19.6146 21.1661V21.8353C19.6146 22.0528 19.4381 22.229 19.2209 22.229Z" fill="#103E13"/>
<path d="M17.5654 22.229C17.3482 22.229 17.1716 22.0528 17.1716 21.8353V21.1661C17.1716 20.949 17.3479 20.7724 17.5654 20.7724C17.7826 20.7724 17.9591 20.9487 17.9591 21.1661V21.8353C17.9589 22.0528 17.7828 22.229 17.5654 22.229Z" fill="#103E13"/>
<path d="M15.9101 22.229C15.6929 22.229 15.5164 22.0528 15.5164 21.8353V21.1661C15.5164 20.949 15.6926 20.7724 15.9101 20.7724C16.1273 20.7724 16.3039 20.9487 16.3039 21.1661V21.8353C16.3039 22.0528 16.1276 22.229 15.9101 22.229Z" fill="#103E13"/>
<path d="M19.2209 24.9654C19.0037 24.9654 18.8271 24.7891 18.8271 24.5717V23.9028C18.8271 23.6856 19.0034 23.509 19.2209 23.509C19.4381 23.509 19.6146 23.6853 19.6146 23.9028V24.5717C19.6146 24.7888 19.4381 24.9654 19.2209 24.9654Z" fill="#103E13"/>
<path d="M17.5654 24.9654C17.3482 24.9654 17.1716 24.7891 17.1716 24.5717V23.9028C17.1716 23.6856 17.3479 23.509 17.5654 23.509C17.7826 23.509 17.9591 23.6853 17.9591 23.9028V24.5717C17.9589 24.7888 17.7828 24.9654 17.5654 24.9654Z" fill="#103E13"/>
<path d="M15.9101 24.9654C15.6929 24.9654 15.5164 24.7891 15.5164 24.5717L15.5166 23.9028C15.5166 23.6856 15.6929 23.509 15.9104 23.509C16.1276 23.509 16.3041 23.6853 16.3041 23.9028V24.5717C16.3039 24.7888 16.1276 24.9654 15.9101 24.9654Z" fill="#103E13"/>
<path d="M4.66195 27.6886C4.66195 27.9058 4.83823 28.0823 5.0557 28.0823H29.0337C29.2509 28.0823 29.4275 27.9061 29.4275 27.6886C29.4275 27.4714 29.2512 27.2948 29.0337 27.2948H28.3059V15.9898C28.3059 15.7726 28.1296 15.596 27.9121 15.596L21.4834 15.5963V7.44593C21.4834 7.3081 21.4115 7.18069 21.2939 7.1093C21.1767 7.03764 21.0301 7.03324 20.9082 7.09667L13.5992 10.9021C13.4688 10.9699 13.3875 11.1044 13.3875 11.2513V18.3705H6.314C6.09682 18.3705 5.92026 18.5468 5.92026 18.7643V27.2949H5.05482C4.83763 27.2946 4.66162 27.4709 4.66162 27.6884L4.66195 27.6886ZM21.4835 21.5598H27.5188V27.2952L21.4835 27.2949V21.5598ZM21.4835 18.8236H27.5188V20.7726L21.4835 20.7723V18.8236ZM21.4835 16.3834H27.5188V18.0366H21.4835V16.3834ZM14.1746 11.4904L20.6958 8.09496V27.2945H14.1746V11.4904ZM8.65419 24.15C8.65419 23.3329 9.30164 22.6678 10.0976 22.6678C10.8936 22.6678 11.5414 23.3326 11.5414 24.15V27.295H8.65419V24.15ZM6.70773 19.1579H13.3874V27.2949H12.3288V24.1499C12.3288 22.8986 11.3283 21.8805 10.0976 21.8805C8.86753 21.8805 7.86699 22.8983 7.86699 24.1499V27.2949H6.70773V19.1579Z" fill="#103E13"/>
</svg>
